# xmcd
#
# Track frame offsets:
# 150
# 19193
# 34262
# 57714
# 68443
#
# Disc length: 1168 seconds
#
#
# Revision: 0
# Processed by: cddbd v1.5.1PL0 Copyright (c) Steve Scherf et al.
# Submitted via: FreeRIP 2.90 
#
DISCID=3f048e05
DTITLE=The Coolbrothers - The Bros Are Back
DYEAR=1900
DGENRE=Blues
TTITLE0=The Coolbrother Story (thus far)
TTITLE1=Peaceful Easy Feeling
TTITLE2=The Coolbrother Medley
TTITLE3=Something ´Bout You Baby I Like
TTITLE4=The Way You Said Goodbye
EXTD=
EXTT0=
EXTT1=
EXTT2=
EXTT3=
EXTT4=
PLAYORDER=
